<?xml version="1.0" encoding="UTF-8"?>
<svg xmlns="http://www.w3.org/2000/svg" xmlns:xlink="http://www.w3.org/1999/xlink" width="750pt" height="624pt" viewBox="0 0 750 624" version="1.1">
<g id="surface1">
<path style=" stroke:none;fill-rule:nonzero;fill:rgb(14.901733%,67.842102%,89.4104%);fill-opacity:1;" d="M 454.207031 337.136719 L 400.878906 294.496094 L 292.761719 337.136719 L 377.988281 142.457031 L 463.214844 337.136719 Z M 426.445312 274.03125 L 377.746094 163.65625 L 344.871094 238.945312 L 401.363281 284.261719 Z M 308.101562 322.515625 L 392.597656 287.917969 L 341.21875 246.984375 Z M 409.886719 291.085938 L 447.144531 320.808594 L 430.585938 282.800781 Z M 409.886719 291.085938 "/>
<path style=" stroke:none;fill-rule:nonzero;fill:rgb(14.901733%,67.842102%,89.4104%);fill-opacity:1;" d="M 103.40625 431.152344 C 103.40625 431.632812 103.085938 431.953125 103.085938 431.953125 C 102.765625 432.273438 102.203125 432.355469 102.203125 432.355469 C 101.246094 432.355469 101.003906 431.554688 101.003906 431.554688 L 77.730469 372.808594 L 75.089844 379.613281 C 75.410156 380.253906 76.449219 382.8125 76.449219 382.8125 C 77.488281 385.375 79.007812 389.054688 79.007812 389.054688 C 80.53125 392.738281 82.289062 397.300781 82.289062 397.300781 C 84.046875 401.863281 85.886719 406.503906 85.886719 406.503906 C 87.726562 411.144531 89.40625 415.546875 89.40625 415.546875 C 91.085938 419.949219 92.445312 423.390625 92.445312 423.390625 C 93.804688 426.832031 94.605469 428.914062 94.605469 428.914062 C 95.40625 430.992188 95.40625 431.152344 95.40625 431.152344 C 95.40625 432.035156 94.605469 432.273438 94.605469 432.273438 C 94.445312 432.273438 94.367188 432.273438 94.367188 432.273438 C 94.285156 432.273438 94.125 432.355469 94.125 432.355469 C 93.328125 432.355469 93.007812 431.554688 93.007812 431.554688 L 73.8125 383.054688 L 55.175781 431.554688 C 54.855469 432.355469 53.976562 432.355469 53.976562 432.355469 C 53.816406 432.355469 53.816406 432.355469 53.816406 432.355469 C 53.816406 432.355469 53.574219 432.273438 53.574219 432.273438 C 52.773438 432.035156 52.773438 431.074219 52.773438 431.074219 C 52.773438 430.992188 53.734375 428.433594 53.734375 428.433594 C 54.695312 425.871094 56.214844 421.789062 56.214844 421.789062 C 57.734375 417.707031 59.8125 412.425781 59.8125 412.425781 C 61.894531 407.144531 63.972656 401.621094 63.972656 401.621094 C 66.050781 396.097656 68.210938 390.578125 68.210938 390.578125 C 70.371094 385.054688 72.050781 380.652344 72.050781 380.652344 C 73.730469 376.25 75.011719 373.050781 75.011719 373.050781 C 76.289062 369.847656 76.53125 369.046875 76.53125 369.046875 C 76.851562 368.328125 77.730469 368.328125 77.730469 368.328125 C 78.609375 368.328125 78.851562 369.046875 78.851562 369.046875 C 79.167969 369.929688 80.371094 372.96875 80.371094 372.96875 C 81.570312 376.011719 83.410156 380.574219 83.410156 380.574219 C 85.25 385.136719 87.328125 390.578125 87.328125 390.578125 C 89.40625 396.019531 91.726562 401.542969 91.726562 401.542969 C 94.046875 407.0625 96.046875 412.425781 96.046875 412.425781 C 98.046875 417.789062 99.804688 421.789062 99.804688 421.789062 C 101.566406 425.792969 102.363281 428.511719 102.363281 428.511719 C 103.164062 431.234375 103.40625 431.152344 103.40625 431.152344 Z M 103.40625 431.152344 "/>
<path style=" stroke:none;fill-rule:nonzero;fill:rgb(14.901733%,67.842102%,89.4104%);fill-opacity:1;" d="M 198.183594 396.578125 C 198.183594 397.058594 197.863281 397.460938 197.863281 397.460938 C 197.546875 397.859375 196.984375 397.859375 196.984375 397.859375 L 165.792969 397.859375 C 164.511719 397.859375 164.511719 396.578125 164.511719 396.578125 C 164.511719 396.019531 164.910156 395.699219 164.910156 395.699219 C 165.3125 395.378906 165.792969 395.378906 165.792969 395.378906 L 196.984375 395.378906 C 197.464844 395.378906 197.785156 395.699219 197.785156 395.699219 C 198.105469 396.019531 198.183594 396.578125 198.183594 396.578125 Z M 198.503906 423.308594 C 198.503906 423.871094 198.105469 424.269531 198.105469 424.269531 C 193.785156 428.351562 188.1875 430.351562 188.1875 430.351562 C 182.589844 432.355469 176.828125 432.355469 176.828125 432.355469 C 170.191406 432.355469 164.351562 429.871094 164.351562 429.871094 C 158.511719 427.390625 154.195312 422.988281 154.195312 422.988281 C 149.875 418.589844 147.394531 412.824219 147.394531 412.824219 C 144.917969 407.0625 144.835938 400.339844 144.835938 400.339844 C 144.835938 393.699219 147.316406 387.855469 147.316406 387.855469 C 149.796875 382.015625 154.195312 377.691406 154.195312 377.691406 C 158.59375 373.371094 164.351562 370.890625 164.351562 370.890625 C 170.109375 368.410156 176.828125 368.328125 176.828125 368.328125 C 182.589844 368.328125 188.105469 370.328125 188.105469 370.328125 C 193.625 372.328125 198.023438 376.410156 198.023438 376.410156 C 198.503906 376.890625 198.503906 377.292969 198.503906 377.292969 C 198.503906 377.851562 198.105469 378.253906 198.105469 378.253906 C 197.707031 378.652344 197.144531 378.734375 197.144531 378.734375 C 196.746094 378.734375 196.34375 378.332031 196.34375 378.332031 C 192.027344 374.730469 187.308594 372.808594 187.308594 372.808594 C 182.589844 370.890625 176.828125 370.808594 176.828125 370.808594 C 170.75 370.808594 165.390625 373.128906 165.390625 373.128906 C 160.03125 375.449219 156.035156 379.453125 156.035156 379.453125 C 152.035156 383.453125 149.636719 388.894531 149.636719 388.894531 C 147.234375 394.339844 147.316406 400.339844 147.316406 400.339844 C 147.316406 406.421875 149.636719 411.785156 149.636719 411.785156 C 151.953125 417.148438 155.953125 421.148438 155.953125 421.148438 C 159.953125 425.152344 165.390625 427.550781 165.390625 427.550781 C 170.832031 429.953125 176.828125 429.871094 176.828125 429.871094 C 182.109375 429.871094 186.988281 428.03125 186.988281 428.03125 C 191.867188 426.191406 196.027344 422.75 196.027344 422.75 L 196.105469 405.78125 L 165.632812 405.78125 C 165.070312 405.78125 164.753906 405.382812 164.753906 405.382812 C 164.433594 404.984375 164.351562 404.421875 164.351562 404.421875 C 164.351562 403.941406 164.671875 403.542969 164.671875 403.542969 C 164.992188 403.140625 165.632812 403.140625 165.632812 403.140625 L 197.304688 403.140625 C 198.585938 403.140625 198.585938 404.503906 198.585938 404.503906 Z M 198.503906 423.308594 "/>
<path style=" stroke:none;fill-rule:nonzero;fill:rgb(14.901733%,67.842102%,89.4104%);fill-opacity:1;" d="M 289.925781 400.339844 C 289.925781 406.984375 287.445312 412.824219 287.445312 412.824219 C 284.96875 418.667969 280.566406 422.988281 280.566406 422.988281 C 276.167969 427.3125 270.410156 429.792969 270.410156 429.792969 C 264.652344 432.273438 257.933594 432.355469 257.933594 432.355469 C 251.292969 432.355469 245.457031 429.871094 245.457031 429.871094 C 239.617188 427.390625 235.296875 422.988281 235.296875 422.988281 C 230.976562 418.589844 228.5 412.824219 228.5 412.824219 C 226.019531 407.0625 225.9375 400.339844 225.9375 400.339844 C 225.9375 393.699219 228.417969 387.855469 228.417969 387.855469 C 230.898438 382.015625 235.296875 377.691406 235.296875 377.691406 C 239.695312 373.371094 245.457031 370.890625 245.457031 370.890625 C 251.214844 368.410156 257.933594 368.328125 257.933594 368.328125 C 264.570312 368.328125 270.410156 370.808594 270.410156 370.808594 C 276.25 373.289062 280.566406 377.691406 280.566406 377.691406 C 284.886719 382.09375 287.367188 387.855469 287.367188 387.855469 C 289.847656 393.617188 289.925781 400.339844 289.925781 400.339844 Z M 287.445312 400.339844 C 287.445312 394.257812 285.128906 388.894531 285.128906 388.894531 C 282.808594 383.535156 278.808594 379.53125 278.808594 379.53125 C 274.808594 375.53125 269.371094 373.128906 269.371094 373.128906 C 263.929688 370.730469 257.933594 370.808594 257.933594 370.808594 C 251.855469 370.808594 246.496094 373.128906 246.496094 373.128906 C 241.136719 375.449219 237.136719 379.453125 237.136719 379.453125 C 233.136719 383.453125 230.738281 388.894531 230.738281 388.894531 C 228.339844 394.339844 228.417969 400.339844 228.417969 400.339844 C 228.417969 406.421875 230.738281 411.785156 230.738281 411.785156 C 233.058594 417.148438 237.058594 421.148438 237.058594 421.148438 C 241.054688 425.152344 246.496094 427.550781 246.496094 427.550781 C 251.933594 429.953125 257.933594 429.871094 257.933594 429.871094 C 264.011719 429.871094 269.371094 427.550781 269.371094 427.550781 C 274.730469 425.230469 278.726562 421.230469 278.726562 421.230469 C 282.726562 417.226562 285.128906 411.785156 285.128906 411.785156 C 287.527344 406.34375 287.445312 400.339844 287.445312 400.339844 Z M 287.445312 400.339844 "/>
<path style=" stroke:none;fill-rule:nonzero;fill:rgb(14.901733%,67.842102%,89.4104%);fill-opacity:1;" d="M 357.910156 382.574219 C 357.910156 385.375 356.953125 387.855469 356.953125 387.855469 C 355.992188 390.335938 354.3125 392.335938 354.3125 392.335938 C 352.632812 394.339844 350.3125 395.539062 350.3125 395.539062 C 347.996094 396.738281 345.113281 397.21875 345.113281 397.21875 C 344.714844 397.300781 344.316406 397.300781 344.316406 397.300781 C 343.914062 397.300781 343.433594 397.300781 343.433594 397.300781 L 329.519531 397.300781 L 329.4375 402.660156 L 344.074219 402.660156 C 344.792969 402.660156 345.195312 403.382812 345.195312 403.382812 C 345.433594 404.023438 346.472656 406.261719 346.472656 406.261719 C 347.515625 408.503906 348.875 411.546875 348.875 411.546875 C 350.234375 414.585938 351.832031 417.949219 351.832031 417.949219 C 353.433594 421.308594 354.710938 424.191406 354.710938 424.191406 C 355.992188 427.070312 356.953125 428.992188 356.953125 428.992188 C 357.910156 430.914062 357.832031 431.234375 357.832031 431.234375 C 357.832031 431.792969 357.433594 432.035156 357.433594 432.035156 C 357.03125 432.273438 356.550781 432.355469 356.550781 432.355469 C 355.753906 432.355469 355.433594 431.632812 355.433594 431.632812 L 343.273438 405.144531 L 329.199219 405.144531 L 329.199219 430.753906 C 329.199219 431.3125 328.796875 431.632812 328.796875 431.632812 C 328.398438 431.953125 327.917969 431.953125 327.917969 431.953125 C 327.4375 431.953125 327.117188 431.632812 327.117188 431.632812 C 326.796875 431.3125 326.71875 430.753906 326.71875 430.753906 L 326.71875 370.730469 L 321.519531 370.730469 L 321.519531 431.152344 C 321.519531 431.714844 321.121094 432.035156 321.121094 432.035156 C 320.71875 432.355469 320.238281 432.355469 320.238281 432.355469 C 319.761719 432.355469 319.441406 432.035156 319.441406 432.035156 C 319.121094 431.714844 319.039062 431.152344 319.039062 431.152344 L 319.039062 369.527344 C 319.039062 368.328125 320.238281 368.328125 320.238281 368.328125 L 343.433594 368.328125 C 346.472656 368.328125 349.113281 369.367188 349.113281 369.367188 C 351.753906 370.410156 353.671875 372.410156 353.671875 372.410156 C 355.59375 374.410156 356.792969 376.890625 356.792969 376.890625 C 357.992188 379.371094 357.910156 382.574219 357.910156 382.574219 Z M 355.433594 382.574219 C 355.433594 380.09375 354.472656 377.933594 354.472656 377.933594 C 353.511719 375.769531 351.914062 374.171875 351.914062 374.171875 C 350.3125 372.570312 348.074219 371.691406 348.074219 371.691406 C 345.835938 370.808594 343.433594 370.730469 343.433594 370.730469 L 329.199219 370.730469 L 329.199219 394.820312 L 343.433594 394.820312 C 345.914062 394.820312 348.074219 393.859375 348.074219 393.859375 C 350.234375 392.898438 351.914062 391.21875 351.914062 391.21875 C 353.59375 389.535156 354.472656 387.375 354.472656 387.375 C 355.351562 385.214844 355.433594 382.574219 355.433594 382.574219 Z M 355.433594 382.574219 "/>
<path style=" stroke:none;fill-rule:nonzero;fill:rgb(14.901733%,67.842102%,89.4104%);fill-opacity:1;" d="M 416.300781 431.152344 C 416.300781 431.632812 415.980469 431.953125 415.980469 431.953125 C 415.660156 432.273438 415.101562 432.355469 415.101562 432.355469 C 414.140625 432.355469 413.902344 431.554688 413.902344 431.554688 L 390.625 372.808594 L 387.984375 379.613281 C 388.304688 380.253906 389.34375 382.8125 389.34375 382.8125 C 390.386719 385.375 391.90625 389.054688 391.90625 389.054688 C 393.425781 392.738281 395.183594 397.300781 395.183594 397.300781 C 396.945312 401.863281 398.785156 406.503906 398.785156 406.503906 C 400.625 411.144531 402.304688 415.546875 402.304688 415.546875 C 403.984375 419.949219 405.34375 423.390625 405.34375 423.390625 C 406.703125 426.832031 407.5 428.914062 407.5 428.914062 C 408.300781 430.992188 408.300781 431.152344 408.300781 431.152344 C 408.300781 432.035156 407.5 432.273438 407.5 432.273438 C 407.34375 432.273438 407.261719 432.273438 407.261719 432.273438 C 407.183594 432.273438 407.023438 432.355469 407.023438 432.355469 C 406.222656 432.355469 405.902344 431.554688 405.902344 431.554688 L 386.707031 383.054688 L 368.070312 431.554688 C 367.75 432.355469 366.871094 432.355469 366.871094 432.355469 C 366.710938 432.355469 366.710938 432.355469 366.710938 432.355469 C 366.710938 432.355469 366.46875 432.273438 366.46875 432.273438 C 365.671875 432.035156 365.671875 431.074219 365.671875 431.074219 C 365.671875 430.992188 366.628906 428.433594 366.628906 428.433594 C 367.589844 425.871094 369.109375 421.789062 369.109375 421.789062 C 370.628906 417.707031 372.710938 412.425781 372.710938 412.425781 C 374.789062 407.144531 376.867188 401.621094 376.867188 401.621094 C 378.949219 396.097656 381.105469 390.578125 381.105469 390.578125 C 383.265625 385.054688 384.945312 380.652344 384.945312 380.652344 C 386.625 376.25 387.90625 373.050781 387.90625 373.050781 C 389.1875 369.847656 389.425781 369.046875 389.425781 369.046875 C 389.746094 368.328125 390.625 368.328125 390.625 368.328125 C 391.503906 368.328125 391.746094 369.046875 391.746094 369.046875 C 392.066406 369.929688 393.265625 372.96875 393.265625 372.96875 C 394.464844 376.011719 396.304688 380.574219 396.304688 380.574219 C 398.144531 385.136719 400.222656 390.578125 400.222656 390.578125 C 402.304688 396.019531 404.621094 401.542969 404.621094 401.542969 C 406.941406 407.0625 408.941406 412.425781 408.941406 412.425781 C 410.941406 417.789062 412.699219 421.789062 412.699219 421.789062 C 414.460938 425.792969 415.261719 428.511719 415.261719 428.511719 C 416.058594 431.234375 416.300781 431.152344 416.300781 431.152344 Z M 416.300781 431.152344 "/>
<path style=" stroke:none;fill-rule:nonzero;fill:rgb(14.901733%,67.842102%,89.4104%);fill-opacity:1;" d="M 504.441406 431.234375 C 504.441406 431.714844 504.042969 432.035156 504.042969 432.035156 C 503.640625 432.355469 503.164062 432.355469 503.164062 432.355469 C 502.523438 432.355469 502.203125 431.875 502.203125 431.875 L 480.6875 401.78125 L 468.847656 413.625 L 468.847656 430.59375 C 468.847656 431.074219 468.449219 431.394531 468.449219 431.394531 C 468.050781 431.714844 467.570312 431.792969 467.570312 431.792969 C 467.089844 431.792969 466.691406 431.472656 466.691406 431.472656 C 466.289062 431.152344 466.289062 430.59375 466.289062 430.59375 L 466.289062 369.929688 C 466.289062 369.367188 466.691406 369.046875 466.691406 369.046875 C 467.089844 368.726562 467.570312 368.726562 467.570312 368.726562 C 468.050781 368.726562 468.449219 369.046875 468.449219 369.046875 C 468.847656 369.367188 468.847656 369.929688 468.847656 369.929688 L 468.847656 399.378906 L 499.484375 368.648438 C 499.882812 368.25 500.28125 368.25 500.28125 368.25 C 500.761719 368.25 501.164062 368.648438 501.164062 368.648438 C 501.5625 369.046875 501.5625 369.527344 501.5625 369.527344 C 501.5625 370.007812 501.164062 370.410156 501.164062 370.410156 L 468.847656 402.820312 L 468.847656 410.183594 C 469.167969 409.863281 470.128906 408.90625 470.128906 408.90625 C 471.089844 407.945312 472.289062 406.582031 472.289062 406.582031 C 473.488281 405.222656 474.847656 403.941406 474.847656 403.941406 C 476.207031 402.660156 477.488281 401.460938 477.488281 401.460938 C 478.765625 400.261719 479.566406 399.539062 479.566406 399.539062 C 480.367188 398.820312 480.6875 398.742188 480.6875 398.742188 C 481.40625 398.742188 481.804688 399.21875 481.804688 399.21875 C 482.285156 399.941406 484.125 402.5 484.125 402.5 C 485.964844 405.0625 488.523438 408.585938 488.523438 408.585938 C 491.085938 412.105469 493.882812 415.867188 493.882812 415.867188 C 496.683594 419.628906 499.003906 422.988281 499.003906 422.988281 C 501.324219 426.351562 502.921875 428.59375 502.921875 428.59375 C 504.523438 430.832031 504.441406 431.234375 504.441406 431.234375 Z M 504.441406 431.234375 "/>
<path style=" stroke:none;fill-rule:nonzero;fill:rgb(14.901733%,67.842102%,89.4104%);fill-opacity:1;" d="M 548.351562 416.507812 C 548.351562 419.707031 547.152344 422.589844 547.152344 422.589844 C 545.953125 425.472656 543.875 427.632812 543.875 427.632812 C 541.792969 429.792969 538.914062 431.074219 538.914062 431.074219 C 536.035156 432.355469 532.835938 432.355469 532.835938 432.355469 L 526.675781 432.355469 C 523.398438 432.355469 520.519531 431.152344 520.519531 431.152344 C 517.640625 429.953125 515.480469 427.710938 515.480469 427.710938 C 513.320312 425.472656 512.121094 422.667969 512.121094 422.667969 C 510.921875 419.867188 510.839844 416.507812 510.839844 416.507812 L 510.839844 369.527344 C 510.839844 369.046875 511.160156 368.726562 511.160156 368.726562 C 511.480469 368.410156 512.039062 368.328125 512.039062 368.328125 C 512.519531 368.328125 512.839844 368.648438 512.839844 368.648438 C 513.160156 368.96875 513.238281 369.527344 513.238281 369.527344 L 513.238281 416.507812 C 513.238281 419.226562 514.28125 421.628906 514.28125 421.628906 C 515.320312 424.03125 517.238281 425.949219 517.238281 425.949219 C 519.160156 427.871094 521.476562 428.832031 521.476562 428.832031 C 523.796875 429.792969 526.675781 429.953125 526.675781 429.953125 L 532.835938 429.953125 C 535.554688 429.953125 537.953125 428.914062 537.953125 428.914062 C 540.355469 427.871094 542.113281 425.949219 542.113281 425.949219 C 543.875 424.03125 544.914062 421.710938 544.914062 421.710938 C 545.953125 419.386719 545.953125 416.507812 545.953125 416.507812 L 545.953125 369.527344 C 545.953125 369.046875 546.273438 368.726562 546.273438 368.726562 C 546.59375 368.410156 547.152344 368.328125 547.152344 368.328125 C 547.632812 368.328125 547.953125 368.648438 547.953125 368.648438 C 548.273438 368.96875 548.351562 369.527344 548.351562 369.527344 Z M 548.351562 416.507812 "/>
<path style=" stroke:none;fill-rule:nonzero;fill:rgb(14.901733%,67.842102%,89.4104%);fill-opacity:1;" d="M 645.371094 414.507812 C 645.371094 418.1875 644.011719 421.390625 644.011719 421.390625 C 642.652344 424.589844 640.175781 427.070312 640.175781 427.070312 C 637.695312 429.550781 634.574219 430.832031 634.574219 430.832031 C 631.457031 432.113281 627.617188 432.273438 627.617188 432.273438 L 609.859375 432.273438 C 609.21875 432.273438 608.980469 431.792969 608.980469 431.792969 C 608.742188 431.3125 608.660156 430.753906 608.660156 430.753906 L 608.660156 370.730469 L 603.382812 370.730469 L 603.382812 431.152344 C 603.382812 431.714844 602.980469 432.035156 602.980469 432.035156 C 602.582031 432.355469 602.023438 432.355469 602.023438 432.355469 C 601.542969 432.355469 601.140625 432.035156 601.140625 432.035156 C 600.742188 431.714844 600.742188 431.152344 600.742188 431.152344 L 600.742188 369.527344 C 600.742188 368.328125 602.023438 368.328125 602.023438 368.328125 L 626.097656 368.328125 C 629.296875 368.328125 632.09375 369.527344 632.09375 369.527344 C 634.894531 370.730469 637.054688 372.808594 637.054688 372.808594 C 639.214844 374.890625 640.332031 377.773438 640.332031 377.773438 C 641.453125 380.652344 641.613281 383.773438 641.613281 383.773438 C 641.613281 388.175781 639.375 391.859375 639.375 391.859375 C 637.132812 395.539062 632.976562 397.539062 632.976562 397.539062 C 635.695312 398.421875 638.015625 400.101562 638.015625 400.101562 C 640.332031 401.78125 641.933594 404.023438 641.933594 404.023438 C 643.53125 406.261719 644.414062 408.90625 644.414062 408.90625 C 645.292969 411.546875 645.371094 414.507812 645.371094 414.507812 Z M 639.132812 383.773438 C 639.132812 381.054688 638.09375 378.734375 638.09375 378.734375 C 637.054688 376.410156 635.292969 374.570312 635.292969 374.570312 C 633.535156 372.730469 631.214844 371.769531 631.214844 371.769531 C 628.894531 370.808594 626.097656 370.730469 626.097656 370.730469 L 610.980469 370.730469 L 610.980469 396.738281 L 626.097656 396.738281 C 628.734375 396.738281 631.136719 395.699219 631.136719 395.699219 C 633.535156 394.660156 635.292969 392.898438 635.292969 392.898438 C 637.054688 391.136719 638.09375 388.816406 638.09375 388.816406 C 639.132812 386.496094 639.132812 383.773438 639.132812 383.773438 Z M 642.894531 414.507812 C 642.894531 411.386719 641.695312 408.585938 641.695312 408.585938 C 640.492188 405.78125 638.414062 403.703125 638.414062 403.703125 C 636.335938 401.621094 633.535156 400.421875 633.535156 400.421875 C 630.734375 399.21875 627.617188 399.21875 627.617188 399.21875 C 627.296875 399.21875 627.214844 399.140625 627.214844 399.140625 L 610.980469 399.140625 L 610.980469 429.871094 L 627.617188 429.871094 C 630.816406 429.871094 633.535156 428.671875 633.535156 428.671875 C 636.253906 427.472656 638.414062 425.390625 638.414062 425.390625 C 640.574219 423.308594 641.695312 420.507812 641.695312 420.507812 C 642.8125 417.707031 642.894531 414.507812 642.894531 414.507812 Z M 642.894531 414.507812 "/>
<path style=" stroke:none;fill-rule:nonzero;fill:rgb(14.901733%,67.842102%,89.4104%);fill-opacity:1;" d="M 718.078125 430.992188 C 718.078125 431.472656 717.757812 431.875 717.757812 431.875 C 717.4375 432.273438 716.878906 432.355469 716.878906 432.355469 L 677.6875 432.355469 C 677.125 432.355469 676.804688 431.953125 676.804688 431.953125 C 676.488281 431.554688 676.40625 430.992188 676.40625 430.992188 L 676.40625 369.527344 C 676.40625 368.96875 676.804688 368.648438 676.804688 368.648438 C 677.207031 368.328125 677.6875 368.328125 677.6875 368.328125 L 716.878906 368.328125 C 717.359375 368.328125 717.679688 368.648438 717.679688 368.648438 C 717.996094 368.96875 718.078125 369.527344 718.078125 369.527344 C 718.078125 370.007812 717.757812 370.328125 717.757812 370.328125 C 717.4375 370.648438 716.878906 370.730469 716.878906 370.730469 L 678.804688 370.730469 L 678.804688 395.617188 L 708.480469 395.617188 C 708.960938 395.617188 709.28125 395.9375 709.28125 395.9375 C 709.597656 396.257812 709.679688 396.820312 709.679688 396.820312 C 709.679688 397.300781 709.359375 397.621094 709.359375 397.621094 C 709.039062 397.941406 708.480469 398.019531 708.480469 398.019531 L 678.964844 398.019531 L 678.886719 403.460938 L 708.800781 403.460938 C 710.078125 403.460938 710.078125 404.742188 710.078125 404.742188 C 710.078125 405.222656 709.679688 405.625 709.679688 405.625 C 709.28125 406.023438 708.800781 406.023438 708.800781 406.023438 L 678.804688 406.023438 L 678.804688 429.632812 L 716.878906 429.632812 C 717.359375 429.632812 717.679688 430.03125 717.679688 430.03125 C 717.996094 430.433594 718.078125 430.992188 718.078125 430.992188 Z M 718.078125 430.992188 "/>
<path style=" stroke:none;fill-rule:nonzero;fill:rgb(14.901733%,67.842102%,89.4104%);fill-opacity:1;" d="M 196.039062 462.058594 L 199.71875 462.058594 L 199.71875 480.070312 L 196.144531 480.070312 L 196.144531 475.644531 C 196.195312 474.539062 196.273438 472.351562 196.273438 472.351562 C 196.347656 470.164062 196.425781 469.082031 196.425781 469.082031 L 196.296875 469.03125 L 194.675781 473.765625 L 193.777344 476.210938 L 190.175781 476.210938 L 189.277344 473.765625 L 187.65625 469.03125 L 187.527344 469.082031 C 187.578125 470.164062 187.65625 472.351562 187.65625 472.351562 C 187.734375 474.539062 187.785156 475.644531 187.785156 475.644531 L 187.785156 480.070312 L 184.234375 480.070312 L 184.234375 462.058594 L 187.914062 462.058594 L 190.742188 468.875 C 191.695312 471.246094 191.925781 472.015625 191.925781 472.015625 L 192.027344 472.015625 C 192.257812 471.246094 193.210938 468.875 193.210938 468.875 Z M 196.039062 462.058594 "/>
<path style=" stroke:none;fill-rule:nonzero;fill:rgb(14.901733%,67.842102%,89.4104%);fill-opacity:1;" d="M 230.738281 480.070312 L 230.144531 477.085938 L 226.339844 477.085938 L 225.746094 480.070312 L 221.964844 480.070312 L 226.289062 462.058594 L 230.195312 462.058594 L 234.519531 480.070312 Z M 227.058594 473.613281 L 229.425781 473.613281 L 229.015625 471.554688 C 228.652344 469.570312 228.292969 466.613281 228.292969 466.613281 L 228.191406 466.613281 C 227.753906 470.085938 227.46875 471.554688 227.46875 471.554688 Z M 227.058594 473.613281 "/>
<path style=" stroke:none;fill-rule:nonzero;fill:rgb(14.901733%,67.842102%,89.4104%);fill-opacity:1;" d="M 264.636719 480.070312 L 261.371094 473.25 L 260.367188 474.875 L 260.367188 480.070312 L 256.765625 480.070312 L 256.765625 462.058594 L 260.367188 462.058594 L 260.367188 468.953125 L 261.292969 466.945312 L 263.8125 462.058594 L 267.980469 462.058594 L 263.402344 469.933594 L 268.75 480.070312 Z M 264.636719 480.070312 "/>
<path style=" stroke:none;fill-rule:nonzero;fill:rgb(14.901733%,67.842102%,89.4104%);fill-opacity:1;" d="M 294.574219 476.597656 L 300.464844 476.597656 L 300.464844 480.070312 L 290.921875 480.070312 L 290.921875 462.058594 L 300.207031 462.058594 L 300.207031 465.53125 L 294.574219 465.53125 L 294.574219 469.261719 L 299.691406 469.261719 L 299.691406 472.609375 L 294.574219 472.609375 Z M 294.574219 476.597656 "/>
<path style=" stroke:none;fill-rule:nonzero;fill:rgb(14.901733%,67.842102%,89.4104%);fill-opacity:1;" d="M 349.253906 462.058594 L 352.90625 462.058594 L 352.90625 480.070312 L 349.253906 480.070312 Z M 349.253906 462.058594 "/>
<path style=" stroke:none;fill-rule:nonzero;fill:rgb(14.901733%,67.842102%,89.4104%);fill-opacity:1;" d="M 386.265625 462.058594 L 386.265625 465.53125 L 382.742188 465.53125 L 382.742188 480.070312 L 378.988281 480.070312 L 378.988281 465.53125 L 375.464844 465.53125 L 375.464844 462.058594 Z M 386.265625 462.058594 "/>
<path style=" stroke:none;fill-rule:nonzero;fill:rgb(14.901733%,67.842102%,89.4104%);fill-opacity:1;" d="M 438.195312 476.597656 L 444.085938 476.597656 L 444.085938 480.070312 L 434.542969 480.070312 L 434.542969 462.058594 L 443.828125 462.058594 L 443.828125 465.53125 L 438.195312 465.53125 L 438.195312 469.261719 L 443.3125 469.261719 L 443.3125 472.609375 L 438.195312 472.609375 Z M 438.195312 476.597656 "/>
<path style=" stroke:none;fill-rule:nonzero;fill:rgb(14.901733%,67.842102%,89.4104%);fill-opacity:1;" d="M 474.410156 480.070312 L 473.820312 477.085938 L 470.011719 477.085938 L 469.421875 480.070312 L 465.640625 480.070312 L 469.960938 462.058594 L 473.871094 462.058594 L 478.191406 480.070312 Z M 470.730469 473.613281 L 473.097656 473.613281 L 472.6875 471.554688 C 472.328125 469.570312 471.964844 466.613281 471.964844 466.613281 L 471.863281 466.613281 C 471.425781 470.085938 471.144531 471.554688 471.144531 471.554688 Z M 470.730469 473.613281 "/>
<path style=" stroke:none;fill-rule:nonzero;fill:rgb(14.901733%,67.842102%,89.4104%);fill-opacity:1;" d="M 504.914062 480.433594 C 502.316406 480.433594 500.824219 478.964844 500.824219 478.964844 C 499.332031 477.5 499.332031 474.820312 499.332031 474.820312 L 503.089844 474.820312 C 503.089844 476.878906 504.964844 476.878906 504.964844 476.878906 C 505.839844 476.878906 506.304688 476.441406 506.304688 476.441406 C 506.765625 476.003906 506.765625 475.285156 506.765625 475.285156 C 506.765625 474.5625 506.25 473.972656 506.25 473.972656 C 505.738281 473.378906 504.941406 472.890625 504.941406 472.890625 C 504.144531 472.402344 503.242188 471.8125 503.242188 471.8125 C 502.34375 471.21875 501.542969 470.523438 501.542969 470.523438 C 500.746094 469.828125 500.257812 468.800781 500.257812 468.800781 C 499.769531 467.769531 499.71875 466.457031 499.71875 466.457031 C 499.71875 464.347656 501.109375 463.035156 501.109375 463.035156 C 502.496094 461.722656 504.964844 461.695312 504.964844 461.695312 C 507.460938 461.695312 508.875 463.085938 508.875 463.085938 C 510.289062 464.476562 510.289062 467 510.289062 467 L 506.535156 467 C 506.535156 465.222656 504.941406 465.222656 504.941406 465.222656 C 504.21875 465.222656 503.835938 465.582031 503.835938 465.582031 C 503.449219 465.941406 503.421875 466.5625 503.421875 466.5625 C 503.421875 467.203125 503.9375 467.796875 503.9375 467.796875 C 504.453125 468.386719 505.273438 468.800781 505.273438 468.800781 C 506.097656 469.210938 506.996094 469.828125 506.996094 469.828125 C 507.898438 470.445312 508.722656 471.117188 508.722656 471.117188 C 509.542969 471.785156 510.03125 472.867188 510.03125 472.867188 C 510.519531 473.945312 510.574219 475.3125 510.574219 475.3125 C 510.574219 477.574219 509.054688 478.992188 509.054688 478.992188 C 507.539062 480.40625 504.914062 480.433594 504.914062 480.433594 Z M 504.914062 480.433594 "/>
<path style=" stroke:none;fill-rule:nonzero;fill:rgb(14.901733%,67.842102%,89.4104%);fill-opacity:1;" d="M 533.335938 462.058594 L 536.988281 462.058594 L 536.988281 480.070312 L 533.335938 480.070312 Z M 533.335938 462.058594 "/>
<path style=" stroke:none;fill-rule:nonzero;fill:rgb(14.901733%,67.842102%,89.4104%);fill-opacity:1;" d="M 564.40625 476.597656 L 570.296875 476.597656 L 570.296875 480.070312 L 560.753906 480.070312 L 560.753906 462.058594 L 570.039062 462.058594 L 570.039062 465.53125 L 564.40625 465.53125 L 564.40625 469.261719 L 569.523438 469.261719 L 569.523438 472.609375 L 564.40625 472.609375 Z M 564.40625 476.597656 "/>
<path style=" stroke:none;fill-rule:nonzero;fill:rgb(14.901733%,67.842102%,89.4104%);fill-opacity:1;" d="M 601.183594 480.070312 L 598.304688 474.023438 L 597.019531 474.023438 L 597.019531 480.070312 L 593.367188 480.070312 L 593.367188 462.058594 L 598.585938 462.058594 C 601.261719 462.058594 602.753906 463.625 602.753906 463.625 C 604.246094 465.195312 604.269531 468.054688 604.269531 468.054688 C 604.269531 471.757812 601.777344 473.25 601.777344 473.25 L 605.171875 480.070312 Z M 597.019531 465.53125 L 597.019531 470.550781 L 598.535156 470.550781 C 600.515625 470.550781 600.515625 468.054688 600.515625 468.054688 C 600.515625 465.53125 598.535156 465.53125 598.535156 465.53125 Z M 597.019531 465.53125 "/>
</g>
</svg>
