<?xml version="1.0" encoding="UTF-8"?>
<svg xmlns="http://www.w3.org/2000/svg" xmlns:xlink="http://www.w3.org/1999/xlink" width="750pt" height="624pt" viewBox="0 0 750 624" version="1.1">
<g id="surface1">
<path style=" stroke:none;fill-rule:nonzero;fill:rgb(14.901733%,67.842102%,89.4104%);fill-opacity:1;" d="M 454.207031 361.230469 L 400.878906 318.589844 L 292.761719 361.230469 L 377.988281 166.550781 L 463.214844 361.230469 Z M 426.445312 298.125 L 377.746094 187.75 L 344.871094 263.039062 L 401.363281 308.355469 Z M 308.101562 346.609375 L 392.597656 312.011719 L 341.21875 271.078125 Z M 409.886719 315.179688 L 447.144531 344.902344 L 430.585938 306.894531 Z M 409.886719 315.179688 "/>
<path style=" stroke:none;fill-rule:nonzero;fill:rgb(14.901733%,67.842102%,89.4104%);fill-opacity:1;" d="M 103.40625 455.246094 C 103.40625 455.726562 103.085938 456.046875 103.085938 456.046875 C 102.765625 456.367188 102.203125 456.449219 102.203125 456.449219 C 101.246094 456.449219 101.003906 455.648438 101.003906 455.648438 L 77.730469 396.902344 L 75.089844 403.707031 C 75.410156 404.347656 76.449219 406.90625 76.449219 406.90625 C 77.488281 409.46875 79.007812 413.148438 79.007812 413.148438 C 80.53125 416.832031 82.289062 421.394531 82.289062 421.394531 C 84.046875 425.957031 85.886719 430.597656 85.886719 430.597656 C 87.726562 435.238281 89.40625 439.640625 89.40625 439.640625 C 91.085938 444.042969 92.445312 447.484375 92.445312 447.484375 C 93.804688 450.925781 94.605469 453.007812 94.605469 453.007812 C 95.40625 455.085938 95.40625 455.246094 95.40625 455.246094 C 95.40625 456.128906 94.605469 456.367188 94.605469 456.367188 C 94.445312 456.367188 94.367188 456.367188 94.367188 456.367188 C 94.285156 456.367188 94.125 456.449219 94.125 456.449219 C 93.328125 456.449219 93.007812 455.648438 93.007812 455.648438 L 73.8125 407.148438 L 55.175781 455.648438 C 54.855469 456.449219 53.976562 456.449219 53.976562 456.449219 C 53.816406 456.449219 53.816406 456.449219 53.816406 456.449219 C 53.816406 456.449219 53.574219 456.367188 53.574219 456.367188 C 52.773438 456.128906 52.773438 455.167969 52.773438 455.167969 C 52.773438 455.085938 53.734375 452.527344 53.734375 452.527344 C 54.695312 449.964844 56.214844 445.882812 56.214844 445.882812 C 57.734375 441.800781 59.8125 436.519531 59.8125 436.519531 C 61.894531 431.238281 63.972656 425.714844 63.972656 425.714844 C 66.050781 420.191406 68.210938 414.671875 68.210938 414.671875 C 70.371094 409.148438 72.050781 404.746094 72.050781 404.746094 C 73.730469 400.34375 75.011719 397.144531 75.011719 397.144531 C 76.289062 393.941406 76.53125 393.140625 76.53125 393.140625 C 76.851562 392.421875 77.730469 392.421875 77.730469 392.421875 C 78.609375 392.421875 78.851562 393.140625 78.851562 393.140625 C 79.167969 394.023438 80.371094 397.0625 80.371094 397.0625 C 81.570312 400.105469 83.410156 404.667969 83.410156 404.667969 C 85.25 409.230469 87.328125 414.671875 87.328125 414.671875 C 89.40625 420.113281 91.726562 425.636719 91.726562 425.636719 C 94.046875 431.15625 96.046875 436.519531 96.046875 436.519531 C 98.046875 441.882812 99.804688 445.882812 99.804688 445.882812 C 101.566406 449.882812 102.363281 452.605469 102.363281 452.605469 C 103.164062 455.328125 103.40625 455.246094 103.40625 455.246094 Z M 103.40625 455.246094 "/>
<path style=" stroke:none;fill-rule:nonzero;fill:rgb(14.901733%,67.842102%,89.4104%);fill-opacity:1;" d="M 198.183594 420.671875 C 198.183594 421.152344 197.863281 421.554688 197.863281 421.554688 C 197.546875 421.953125 196.984375 421.953125 196.984375 421.953125 L 165.792969 421.953125 C 164.511719 421.953125 164.511719 420.671875 164.511719 420.671875 C 164.511719 420.113281 164.910156 419.792969 164.910156 419.792969 C 165.3125 419.472656 165.792969 419.472656 165.792969 419.472656 L 196.984375 419.472656 C 197.464844 419.472656 197.785156 419.792969 197.785156 419.792969 C 198.105469 420.113281 198.183594 420.671875 198.183594 420.671875 Z M 198.503906 447.402344 C 198.503906 447.964844 198.105469 448.363281 198.105469 448.363281 C 193.785156 452.445312 188.1875 454.445312 188.1875 454.445312 C 182.589844 456.449219 176.828125 456.449219 176.828125 456.449219 C 170.191406 456.449219 164.351562 453.964844 164.351562 453.964844 C 158.511719 451.484375 154.195312 447.082031 154.195312 447.082031 C 149.875 442.683594 147.394531 436.917969 147.394531 436.917969 C 144.917969 431.15625 144.835938 424.433594 144.835938 424.433594 C 144.835938 417.792969 147.316406 411.949219 147.316406 411.949219 C 149.796875 406.109375 154.195312 401.785156 154.195312 401.785156 C 158.59375 397.464844 164.351562 394.984375 164.351562 394.984375 C 170.109375 392.503906 176.828125 392.421875 176.828125 392.421875 C 182.589844 392.421875 188.105469 394.421875 188.105469 394.421875 C 193.625 396.421875 198.023438 400.503906 198.023438 400.503906 C 198.503906 400.984375 198.503906 401.386719 198.503906 401.386719 C 198.503906 401.945312 198.105469 402.347656 198.105469 402.347656 C 197.707031 402.746094 197.144531 402.824219 197.144531 402.824219 C 196.746094 402.824219 196.34375 402.425781 196.34375 402.425781 C 192.027344 398.824219 187.308594 396.902344 187.308594 396.902344 C 182.589844 394.984375 176.828125 394.902344 176.828125 394.902344 C 170.75 394.902344 165.390625 397.222656 165.390625 397.222656 C 160.03125 399.542969 156.035156 403.546875 156.035156 403.546875 C 152.035156 407.546875 149.636719 412.988281 149.636719 412.988281 C 147.234375 418.433594 147.316406 424.433594 147.316406 424.433594 C 147.316406 430.515625 149.636719 435.878906 149.636719 435.878906 C 151.953125 441.242188 155.953125 445.242188 155.953125 445.242188 C 159.953125 449.246094 165.390625 451.644531 165.390625 451.644531 C 170.832031 454.046875 176.828125 453.964844 176.828125 453.964844 C 182.109375 453.964844 186.988281 452.125 186.988281 452.125 C 191.867188 450.285156 196.027344 446.84375 196.027344 446.84375 L 196.105469 429.875 L 165.632812 429.875 C 165.070312 429.875 164.753906 429.476562 164.753906 429.476562 C 164.433594 429.078125 164.351562 428.515625 164.351562 428.515625 C 164.351562 428.035156 164.671875 427.636719 164.671875 427.636719 C 164.992188 427.234375 165.632812 427.234375 165.632812 427.234375 L 197.304688 427.234375 C 198.585938 427.234375 198.585938 428.597656 198.585938 428.597656 Z M 198.503906 447.402344 "/>
<path style=" stroke:none;fill-rule:nonzero;fill:rgb(14.901733%,67.842102%,89.4104%);fill-opacity:1;" d="M 289.925781 424.433594 C 289.925781 431.078125 287.445312 436.917969 287.445312 436.917969 C 284.96875 442.761719 280.566406 447.082031 280.566406 447.082031 C 276.167969 451.40625 270.410156 453.886719 270.410156 453.886719 C 264.652344 456.367188 257.933594 456.449219 257.933594 456.449219 C 251.292969 456.449219 245.457031 453.964844 245.457031 453.964844 C 239.617188 451.484375 235.296875 447.082031 235.296875 447.082031 C 230.976562 442.683594 228.5 436.917969 228.5 436.917969 C 226.019531 431.15625 225.9375 424.433594 225.9375 424.433594 C 225.9375 417.792969 228.417969 411.949219 228.417969 411.949219 C 230.898438 406.109375 235.296875 401.785156 235.296875 401.785156 C 239.695312 397.464844 245.457031 394.984375 245.457031 394.984375 C 251.214844 392.503906 257.933594 392.421875 257.933594 392.421875 C 264.570312 392.421875 270.410156 394.902344 270.410156 394.902344 C 276.25 397.382812 280.566406 401.785156 280.566406 401.785156 C 284.886719 406.1875 287.367188 411.949219 287.367188 411.949219 C 289.847656 417.710938 289.925781 424.433594 289.925781 424.433594 Z M 287.445312 424.433594 C 287.445312 418.351562 285.128906 412.988281 285.128906 412.988281 C 282.808594 407.628906 278.808594 403.625 278.808594 403.625 C 274.808594 399.625 269.371094 397.222656 269.371094 397.222656 C 263.929688 394.824219 257.933594 394.902344 257.933594 394.902344 C 251.855469 394.902344 246.496094 397.222656 246.496094 397.222656 C 241.136719 399.542969 237.136719 403.546875 237.136719 403.546875 C 233.136719 407.546875 230.738281 412.988281 230.738281 412.988281 C 228.339844 418.433594 228.417969 424.433594 228.417969 424.433594 C 228.417969 430.515625 230.738281 435.878906 230.738281 435.878906 C 233.058594 441.242188 237.058594 445.242188 237.058594 445.242188 C 241.054688 449.246094 246.496094 451.644531 246.496094 451.644531 C 251.933594 454.046875 257.933594 453.964844 257.933594 453.964844 C 264.011719 453.964844 269.371094 451.644531 269.371094 451.644531 C 274.730469 449.324219 278.726562 445.324219 278.726562 445.324219 C 282.726562 441.320312 285.128906 435.878906 285.128906 435.878906 C 287.527344 430.4375 287.445312 424.433594 287.445312 424.433594 Z M 287.445312 424.433594 "/>
<path style=" stroke:none;fill-rule:nonzero;fill:rgb(14.901733%,67.842102%,89.4104%);fill-opacity:1;" d="M 357.910156 406.667969 C 357.910156 409.46875 356.953125 411.949219 356.953125 411.949219 C 355.992188 414.429688 354.3125 416.429688 354.3125 416.429688 C 352.632812 418.433594 350.3125 419.632812 350.3125 419.632812 C 347.996094 420.832031 345.113281 421.3125 345.113281 421.3125 C 344.714844 421.394531 344.316406 421.394531 344.316406 421.394531 C 343.914062 421.394531 343.433594 421.394531 343.433594 421.394531 L 329.519531 421.394531 L 329.4375 426.753906 L 344.074219 426.753906 C 344.792969 426.753906 345.195312 427.476562 345.195312 427.476562 C 345.433594 428.117188 346.472656 430.355469 346.472656 430.355469 C 347.515625 432.597656 348.875 435.640625 348.875 435.640625 C 350.234375 438.679688 351.832031 442.042969 351.832031 442.042969 C 353.433594 445.402344 354.710938 448.285156 354.710938 448.285156 C 355.992188 451.164062 356.953125 453.085938 356.953125 453.085938 C 357.910156 455.007812 357.832031 455.328125 357.832031 455.328125 C 357.832031 455.886719 357.433594 456.128906 357.433594 456.128906 C 357.03125 456.367188 356.550781 456.449219 356.550781 456.449219 C 355.753906 456.449219 355.433594 455.726562 355.433594 455.726562 L 343.273438 429.238281 L 329.199219 429.238281 L 329.199219 454.847656 C 329.199219 455.40625 328.796875 455.726562 328.796875 455.726562 C 328.398438 456.046875 327.917969 456.046875 327.917969 456.046875 C 327.4375 456.046875 327.117188 455.726562 327.117188 455.726562 C 326.796875 455.40625 326.71875 454.847656 326.71875 454.847656 L 326.71875 394.824219 L 321.519531 394.824219 L 321.519531 455.246094 C 321.519531 455.808594 321.121094 456.128906 321.121094 456.128906 C 320.71875 456.449219 320.238281 456.449219 320.238281 456.449219 C 319.761719 456.449219 319.441406 456.128906 319.441406 456.128906 C 319.121094 455.808594 319.039062 455.246094 319.039062 455.246094 L 319.039062 393.621094 C 319.039062 392.421875 320.238281 392.421875 320.238281 392.421875 L 343.433594 392.421875 C 346.472656 392.421875 349.113281 393.460938 349.113281 393.460938 C 351.753906 394.503906 353.671875 396.503906 353.671875 396.503906 C 355.59375 398.503906 356.792969 400.984375 356.792969 400.984375 C 357.992188 403.464844 357.910156 406.667969 357.910156 406.667969 Z M 355.433594 406.667969 C 355.433594 404.1875 354.472656 402.027344 354.472656 402.027344 C 353.511719 399.863281 351.914062 398.265625 351.914062 398.265625 C 350.3125 396.664062 348.074219 395.785156 348.074219 395.785156 C 345.835938 394.902344 343.433594 394.824219 343.433594 394.824219 L 329.199219 394.824219 L 329.199219 418.914062 L 343.433594 418.914062 C 345.914062 418.914062 348.074219 417.953125 348.074219 417.953125 C 350.234375 416.992188 351.914062 415.3125 351.914062 415.3125 C 353.59375 413.628906 354.472656 411.46875 354.472656 411.46875 C 355.351562 409.308594 355.433594 406.667969 355.433594 406.667969 Z M 355.433594 406.667969 "/>
<path style=" stroke:none;fill-rule:nonzero;fill:rgb(14.901733%,67.842102%,89.4104%);fill-opacity:1;" d="M 416.300781 455.246094 C 416.300781 455.726562 415.980469 456.046875 415.980469 456.046875 C 415.660156 456.367188 415.101562 456.449219 415.101562 456.449219 C 414.140625 456.449219 413.902344 455.648438 413.902344 455.648438 L 390.625 396.902344 L 387.984375 403.707031 C 388.304688 404.347656 389.34375 406.90625 389.34375 406.90625 C 390.386719 409.46875 391.90625 413.148438 391.90625 413.148438 C 393.425781 416.832031 395.183594 421.394531 395.183594 421.394531 C 396.945312 425.957031 398.785156 430.597656 398.785156 430.597656 C 400.625 435.238281 402.304688 439.640625 402.304688 439.640625 C 403.984375 444.042969 405.34375 447.484375 405.34375 447.484375 C 406.703125 450.925781 407.5 453.007812 407.5 453.007812 C 408.300781 455.085938 408.300781 455.246094 408.300781 455.246094 C 408.300781 456.128906 407.5 456.367188 407.5 456.367188 C 407.34375 456.367188 407.261719 456.367188 407.261719 456.367188 C 407.183594 456.367188 407.023438 456.449219 407.023438 456.449219 C 406.222656 456.449219 405.902344 455.648438 405.902344 455.648438 L 386.707031 407.148438 L 368.070312 455.648438 C 367.75 456.449219 366.871094 456.449219 366.871094 456.449219 C 366.710938 456.449219 366.710938 456.449219 366.710938 456.449219 C 366.710938 456.449219 366.46875 456.367188 366.46875 456.367188 C 365.671875 456.128906 365.671875 455.167969 365.671875 455.167969 C 365.671875 455.085938 366.628906 452.527344 366.628906 452.527344 C 367.589844 449.964844 369.109375 445.882812 369.109375 445.882812 C 370.628906 441.800781 372.710938 436.519531 372.710938 436.519531 C 374.789062 431.238281 376.867188 425.714844 376.867188 425.714844 C 378.949219 420.191406 381.105469 414.671875 381.105469 414.671875 C 383.265625 409.148438 384.945312 404.746094 384.945312 404.746094 C 386.625 400.34375 387.90625 397.144531 387.90625 397.144531 C 389.1875 393.941406 389.425781 393.140625 389.425781 393.140625 C 389.746094 392.421875 390.625 392.421875 390.625 392.421875 C 391.503906 392.421875 391.746094 393.140625 391.746094 393.140625 C 392.066406 394.023438 393.265625 397.0625 393.265625 397.0625 C 394.464844 400.105469 396.304688 404.667969 396.304688 404.667969 C 398.144531 409.230469 400.222656 414.671875 400.222656 414.671875 C 402.304688 420.113281 404.621094 425.636719 404.621094 425.636719 C 406.941406 431.15625 408.941406 436.519531 408.941406 436.519531 C 410.941406 441.882812 412.699219 445.882812 412.699219 445.882812 C 414.460938 449.882812 415.261719 452.605469 415.261719 452.605469 C 416.058594 455.328125 416.300781 455.246094 416.300781 455.246094 Z M 416.300781 455.246094 "/>
<path style=" stroke:none;fill-rule:nonzero;fill:rgb(14.901733%,67.842102%,89.4104%);fill-opacity:1;" d="M 504.441406 455.328125 C 504.441406 455.808594 504.042969 456.128906 504.042969 456.128906 C 503.640625 456.449219 503.164062 456.449219 503.164062 456.449219 C 502.523438 456.449219 502.203125 455.96875 502.203125 455.96875 L 480.6875 425.875 L 468.847656 437.71875 L 468.847656 454.6875 C 468.847656 455.167969 468.449219 455.488281 468.449219 455.488281 C 468.050781 455.808594 467.570312 455.886719 467.570312 455.886719 C 467.089844 455.886719 466.691406 455.566406 466.691406 455.566406 C 466.289062 455.246094 466.289062 454.6875 466.289062 454.6875 L 466.289062 394.023438 C 466.289062 393.460938 466.691406 393.140625 466.691406 393.140625 C 467.089844 392.820312 467.570312 392.820312 467.570312 392.820312 C 468.050781 392.820312 468.449219 393.140625 468.449219 393.140625 C 468.847656 393.460938 468.847656 394.023438 468.847656 394.023438 L 468.847656 423.472656 L 499.484375 392.742188 C 499.882812 392.34375 500.28125 392.34375 500.28125 392.34375 C 500.761719 392.34375 501.164062 392.742188 501.164062 392.742188 C 501.5625 393.140625 501.5625 393.621094 501.5625 393.621094 C 501.5625 394.101562 501.164062 394.503906 501.164062 394.503906 L 468.847656 426.914062 L 468.847656 434.277344 C 469.167969 433.957031 470.128906 433 470.128906 433 C 471.089844 432.039062 472.289062 430.675781 472.289062 430.675781 C 473.488281 429.316406 474.847656 428.035156 474.847656 428.035156 C 476.207031 426.753906 477.488281 425.554688 477.488281 425.554688 C 478.765625 424.355469 479.566406 423.632812 479.566406 423.632812 C 480.367188 422.914062 480.6875 422.835938 480.6875 422.835938 C 481.40625 422.835938 481.804688 423.3125 481.804688 423.3125 C 482.285156 424.035156 484.125 426.59375 484.125 426.59375 C 485.964844 429.15625 488.523438 432.679688 488.523438 432.679688 C 491.085938 436.199219 493.882812 439.960938 493.882812 439.960938 C 496.683594 443.722656 499.003906 447.082031 499.003906 447.082031 C 501.324219 450.445312 502.921875 452.6875 502.921875 452.6875 C 504.523438 454.925781 504.441406 455.328125 504.441406 455.328125 Z M 504.441406 455.328125 "/>
<path style=" stroke:none;fill-rule:nonzero;fill:rgb(14.901733%,67.842102%,89.4104%);fill-opacity:1;" d="M 548.351562 440.601562 C 548.351562 443.800781 547.152344 446.683594 547.152344 446.683594 C 545.953125 449.566406 543.875 451.726562 543.875 451.726562 C 541.792969 453.886719 538.914062 455.167969 538.914062 455.167969 C 536.035156 456.449219 532.835938 456.449219 532.835938 456.449219 L 526.675781 456.449219 C 523.398438 456.449219 520.519531 455.246094 520.519531 455.246094 C 517.640625 454.046875 515.480469 451.804688 515.480469 451.804688 C 513.320312 449.566406 512.121094 446.761719 512.121094 446.761719 C 510.921875 443.960938 510.839844 440.601562 510.839844 440.601562 L 510.839844 393.621094 C 510.839844 393.140625 511.160156 392.820312 511.160156 392.820312 C 511.480469 392.503906 512.039062 392.421875 512.039062 392.421875 C 512.519531 392.421875 512.839844 392.742188 512.839844 392.742188 C 513.160156 393.0625 513.238281 393.621094 513.238281 393.621094 L 513.238281 440.601562 C 513.238281 443.320312 514.28125 445.722656 514.28125 445.722656 C 515.320312 448.125 517.238281 450.042969 517.238281 450.042969 C 519.160156 451.964844 521.476562 452.925781 521.476562 452.925781 C 523.796875 453.886719 526.675781 454.046875 526.675781 454.046875 L 532.835938 454.046875 C 535.554688 454.046875 537.953125 453.007812 537.953125 453.007812 C 540.355469 451.964844 542.113281 450.042969 542.113281 450.042969 C 543.875 448.125 544.914062 445.804688 544.914062 445.804688 C 545.953125 443.480469 545.953125 440.601562 545.953125 440.601562 L 545.953125 393.621094 C 545.953125 393.140625 546.273438 392.820312 546.273438 392.820312 C 546.59375 392.503906 547.152344 392.421875 547.152344 392.421875 C 547.632812 392.421875 547.953125 392.742188 547.953125 392.742188 C 548.273438 393.0625 548.351562 393.621094 548.351562 393.621094 Z M 548.351562 440.601562 "/>
<path style=" stroke:none;fill-rule:nonzero;fill:rgb(14.901733%,67.842102%,89.4104%);fill-opacity:1;" d="M 645.371094 438.601562 C 645.371094 442.28125 644.011719 445.484375 644.011719 445.484375 C 642.652344 448.683594 640.175781 451.164062 640.175781 451.164062 C 637.695312 453.644531 634.574219 454.925781 634.574219 454.925781 C 631.457031 456.207031 627.617188 456.367188 627.617188 456.367188 L 609.859375 456.367188 C 609.21875 456.367188 608.980469 455.886719 608.980469 455.886719 C 608.742188 455.40625 608.660156 454.847656 608.660156 454.847656 L 608.660156 394.824219 L 603.382812 394.824219 L 603.382812 455.246094 C 603.382812 455.808594 602.980469 456.128906 602.980469 456.128906 C 602.582031 456.449219 602.023438 456.449219 602.023438 456.449219 C 601.542969 456.449219 601.140625 456.128906 601.140625 456.128906 C 600.742188 455.808594 600.742188 455.246094 600.742188 455.246094 L 600.742188 393.621094 C 600.742188 392.421875 602.023438 392.421875 602.023438 392.421875 L 626.097656 392.421875 C 629.296875 392.421875 632.09375 393.621094 632.09375 393.621094 C 634.894531 394.824219 637.054688 396.902344 637.054688 396.902344 C 639.214844 398.984375 640.332031 401.867188 640.332031 401.867188 C 641.453125 404.746094 641.613281 407.867188 641.613281 407.867188 C 641.613281 412.269531 639.375 415.953125 639.375 415.953125 C 637.132812 419.632812 632.976562 421.632812 632.976562 421.632812 C 635.695312 422.515625 638.015625 424.195312 638.015625 424.195312 C 640.332031 425.875 641.933594 428.117188 641.933594 428.117188 C 643.53125 430.355469 644.414062 433 644.414062 433 C 645.292969 435.640625 645.371094 438.601562 645.371094 438.601562 Z M 639.132812 407.867188 C 639.132812 405.148438 638.09375 402.824219 638.09375 402.824219 C 637.054688 400.503906 635.292969 398.664062 635.292969 398.664062 C 633.535156 396.824219 631.214844 395.863281 631.214844 395.863281 C 628.894531 394.902344 626.097656 394.824219 626.097656 394.824219 L 610.980469 394.824219 L 610.980469 420.832031 L 626.097656 420.832031 C 628.734375 420.832031 631.136719 419.792969 631.136719 419.792969 C 633.535156 418.753906 635.292969 416.992188 635.292969 416.992188 C 637.054688 415.230469 638.09375 412.910156 638.09375 412.910156 C 639.132812 410.589844 639.132812 407.867188 639.132812 407.867188 Z M 642.894531 438.601562 C 642.894531 435.480469 641.695312 432.679688 641.695312 432.679688 C 640.492188 429.875 638.414062 427.796875 638.414062 427.796875 C 636.335938 425.714844 633.535156 424.515625 633.535156 424.515625 C 630.734375 423.3125 627.617188 423.3125 627.617188 423.3125 C 627.296875 423.3125 627.214844 423.234375 627.214844 423.234375 L 610.980469 423.234375 L 610.980469 453.964844 L 627.617188 453.964844 C 630.816406 453.964844 633.535156 452.765625 633.535156 452.765625 C 636.253906 451.566406 638.414062 449.484375 638.414062 449.484375 C 640.574219 447.402344 641.695312 444.601562 641.695312 444.601562 C 642.8125 441.800781 642.894531 438.601562 642.894531 438.601562 Z M 642.894531 438.601562 "/>
<path style=" stroke:none;fill-rule:nonzero;fill:rgb(14.901733%,67.842102%,89.4104%);fill-opacity:1;" d="M 718.078125 455.085938 C 718.078125 455.566406 717.757812 455.96875 717.757812 455.96875 C 717.4375 456.367188 716.878906 456.449219 716.878906 456.449219 L 677.6875 456.449219 C 677.125 456.449219 676.804688 456.046875 676.804688 456.046875 C 676.488281 455.648438 676.40625 455.085938 676.40625 455.085938 L 676.40625 393.621094 C 676.40625 393.0625 676.804688 392.742188 676.804688 392.742188 C 677.207031 392.421875 677.6875 392.421875 677.6875 392.421875 L 716.878906 392.421875 C 717.359375 392.421875 717.679688 392.742188 717.679688 392.742188 C 717.996094 393.0625 718.078125 393.621094 718.078125 393.621094 C 718.078125 394.101562 717.757812 394.421875 717.757812 394.421875 C 717.4375 394.742188 716.878906 394.824219 716.878906 394.824219 L 678.804688 394.824219 L 678.804688 419.710938 L 708.480469 419.710938 C 708.960938 419.710938 709.28125 420.03125 709.28125 420.03125 C 709.597656 420.351562 709.679688 420.914062 709.679688 420.914062 C 709.679688 421.394531 709.359375 421.714844 709.359375 421.714844 C 709.039062 422.035156 708.480469 422.113281 708.480469 422.113281 L 678.964844 422.113281 L 678.886719 427.554688 L 708.800781 427.554688 C 710.078125 427.554688 710.078125 428.835938 710.078125 428.835938 C 710.078125 429.316406 709.679688 429.714844 709.679688 429.714844 C 709.28125 430.117188 708.800781 430.117188 708.800781 430.117188 L 678.804688 430.117188 L 678.804688 453.726562 L 716.878906 453.726562 C 717.359375 453.726562 717.679688 454.125 717.679688 454.125 C 717.996094 454.527344 718.078125 455.085938 718.078125 455.085938 Z M 718.078125 455.085938 "/>
</g>
</svg>
